<svg width="256" height="256" viewBox="0 0 256 256" fill="none" xmlns="http://www.w3.org/2000/svg">
  <rect width="256" height="256" rx="64" fill="#F7F2EA"/>
  <rect x="50" y="50" width="156" height="156" rx="52" fill="#EFE3D3"/>
  <path d="M93 68V188" stroke="#6F8F6A" stroke-width="14" stroke-linecap="round"/>
  <path d="M93 86C108 76 125 76 138 84C150 91 156 102 156 114C156 126 150 136 139 142C152 147 160 159 160 173C160 186 154 196 143 202C130 209 112 207 93 196" stroke="#A5646D" stroke-width="14" stroke-linecap="round" stroke-linejoin="round"/>
  <path d="M91 92C82 82 81 67 89 56C101 59 111 67 115 79C118 88 117 97 114 105C104 103 97 99 91 92Z" fill="#D99CA3"/>
  <path d="M92 125C82 116 80 101 88 90C101 93 111 102 115 114C118 123 117 132 114 139C104 137 98 133 92 125Z" fill="#E8BBB6"/>
</svg>
